# xmcd
# 
# Track frame offsets:
#     150
#     19556
#     36612
#     57006
#     74055
#     92702
#     116820
#     136672
#     157492
#     174144
#     191493
# 
# Disc length: 2759
# 
# Revision: 4
# Processed by: cddbd v1.5.2PL0 Copyright (c) Steve Scherf et al.
# Submitted via: fre:ac v1.0.31
# 
DISCID=990ac50b
DTITLE=Randy Bachman - Heavy Blues
DYEAR=2015
DGENRE=Blues
TTITLE0=The Edge
TTITLE1=Ton Of Bricks (feat.Scott Holiday)
TTITLE2=Bad Child (feat.Joe Bonamassa)
TTITLE3=Little Girl Lost (feat.Niel Young)
TTITLE4=Learn To Fly
TTITLE5=Oh My Lord (feat.Robert Randolph)
TTITLE6=Confessin' To The Devil (feat.Jeff Healey)
TTITLE7=Heavy Blues (feat.Peter Frampton)
TTITLE8=Wild Texas Ride
TTITLE9=Please Come To Paris (feat.Luke Doucet)
TTITLE10=We Need To Talk
EXTD=YEAR: 2015
EXTT0=
EXTT1=
EXTT2=
EXTT3=
EXTT4=
EXTT5=
EXTT6=
EXTT7=
EXTT8=
EXTT9=
EXTT10=
PLAYORDER=
